<svg width="50" height="50" viewBox="0 0 50 50" fill="none" xmlns="http://www.w3.org/2000/svg">
<path d="M47.4167 25C47.4167 37.3804 37.3804 47.4167 25 47.4167C12.6197 47.4167 2.58337 37.3804 2.58337 25C2.58337 12.6197 12.6197 2.58337 25 2.58337C37.3804 2.58337 47.4167 12.6197 47.4167 25Z" fill="#C4C4C4" stroke="black"/>
<path d="M14.0654 33V31.08H17.4974V18.96L14.2814 21.384L13.1054 19.776L18.0734 16.2H19.6574V31.08H22.5134V33H14.0654ZM32.176 33.288C30.304 33.288 28.88 32.528 27.904 31.008C26.928 29.472 26.44 27.328 26.44 24.576C26.44 21.808 26.936 19.672 27.928 18.168C28.936 16.664 30.368 15.912 32.224 15.912C34.096 15.912 35.52 16.672 36.496 18.192C37.472 19.712 37.96 21.856 37.96 24.624C37.96 27.392 37.456 29.528 36.448 31.032C35.456 32.536 34.032 33.288 32.176 33.288ZM32.2 31.32C32.92 31.32 33.536 31.112 34.048 30.696C34.576 30.264 34.976 29.56 35.248 28.584C35.536 27.608 35.68 26.296 35.68 24.648C35.68 22.44 35.368 20.76 34.744 19.608C34.136 18.456 33.288 17.88 32.2 17.88C31.48 17.88 30.856 18.096 30.328 18.528C29.816 18.944 29.416 19.64 29.128 20.616C28.856 21.576 28.72 22.888 28.72 24.552C28.72 26.76 29.024 28.44 29.632 29.592C30.256 30.744 31.112 31.32 32.2 31.32Z" fill="black"/>
</svg>
