<svg width="50" height="50" viewBox="0 0 50 50" fill="none" xmlns="http://www.w3.org/2000/svg">
<path d="M47.4167 25C47.4167 37.3804 37.3804 47.4167 25 47.4167C12.6197 47.4167 2.58337 37.3804 2.58337 25C2.58337 12.6197 12.6197 2.58337 25 2.58337C37.3804 2.58337 47.4167 12.6197 47.4167 25Z" fill="#C4C4C4" stroke="black"/>
<path d="M14.0654 33V31.08H17.4974V18.96L14.2814 21.384L13.1054 19.776L18.0734 16.2H19.6574V31.08H22.5134V33H14.0654ZM28.456 33V31.08H31.888V18.96L28.672 21.384L27.496 19.776L32.464 16.2H34.048V31.08H36.904V33H28.456Z" fill="black"/>
</svg>
