<svg width="50" height="50" viewBox="0 0 50 50" fill="none" xmlns="http://www.w3.org/2000/svg">
<path d="M47.4167 25C47.4167 37.3804 37.3804 47.4167 25 47.4167C12.6197 47.4167 2.58337 37.3804 2.58337 25C2.58337 12.6197 12.6197 2.58337 25 2.58337C37.3804 2.58337 47.4167 12.6197 47.4167 25Z" fill="#C4C4C4" stroke="black"/>
<path d="M14.0654 33V31.08H17.4974V18.96L14.2814 21.384L13.1054 19.776L18.0734 16.2H19.6574V31.08H22.5134V33H14.0654ZM27.112 33C27.064 32.712 27.04 32.416 27.04 32.112C27.04 31.072 27.216 30.144 27.568 29.328C27.936 28.496 28.408 27.744 28.984 27.072C29.56 26.384 30.168 25.752 30.808 25.176C31.464 24.584 32.072 24.024 32.632 23.496C33.208 22.952 33.68 22.408 34.048 21.864C34.416 21.32 34.6 20.752 34.6 20.16C34.6 19.488 34.352 18.936 33.856 18.504C33.36 18.056 32.72 17.832 31.936 17.832C31.264 17.832 30.648 17.968 30.088 18.24C29.544 18.496 29.032 18.848 28.552 19.296L27.352 17.832C27.992 17.256 28.696 16.792 29.464 16.44C30.248 16.088 31.152 15.912 32.176 15.912C33.12 15.912 33.944 16.096 34.648 16.464C35.352 16.816 35.896 17.304 36.28 17.928C36.68 18.552 36.88 19.248 36.88 20.016C36.88 20.784 36.712 21.496 36.376 22.152C36.04 22.808 35.608 23.424 35.08 24C34.552 24.576 33.984 25.136 33.376 25.68C32.768 26.208 32.184 26.752 31.624 27.312C31.064 27.872 30.584 28.456 30.184 29.064C29.8 29.672 29.56 30.328 29.464 31.032H36.856V33H27.112Z" fill="black"/>
</svg>
