<svg width="50" height="50" viewBox="0 0 50 50" fill="none" xmlns="http://www.w3.org/2000/svg">
<path d="M47.4167 25C47.4167 37.3804 37.3804 47.4167 25 47.4167C12.6197 47.4167 2.58337 37.3804 2.58337 25C2.58337 12.6197 12.6197 2.58337 25 2.58337C37.3804 2.58337 47.4167 12.6197 47.4167 25Z" fill="#C4C4C4" stroke="black"/>
<path d="M14.0654 33V31.08H17.4974V18.96L14.2814 21.384L13.1054 19.776L18.0734 16.2H19.6574V31.08H22.5134V33H14.0654ZM31.216 33.288C30.176 33.288 29.272 33.152 28.504 32.88C27.736 32.592 27.08 32.248 26.536 31.848L27.52 30.048C27.968 30.384 28.488 30.68 29.08 30.936C29.672 31.192 30.392 31.32 31.24 31.32C32.296 31.32 33.128 31.04 33.736 30.48C34.36 29.92 34.672 29.224 34.672 28.392C34.672 27.8 34.512 27.264 34.192 26.784C33.872 26.288 33.376 25.888 32.704 25.584C32.048 25.28 31.192 25.128 30.136 25.128H28.792V23.376H30.04C30.984 23.376 31.76 23.232 32.368 22.944C32.992 22.656 33.456 22.28 33.76 21.816C34.064 21.352 34.216 20.864 34.216 20.352C34.216 19.6 33.928 18.992 33.352 18.528C32.792 18.064 32.096 17.832 31.264 17.832C30.512 17.832 29.84 17.96 29.248 18.216C28.672 18.456 28.2 18.728 27.832 19.032L26.944 17.328C27.424 17.008 28.04 16.696 28.792 16.392C29.544 16.072 30.424 15.912 31.432 15.912C32.488 15.912 33.384 16.104 34.12 16.488C34.856 16.872 35.416 17.384 35.8 18.024C36.2 18.648 36.4 19.328 36.4 20.064C36.4 21.008 36.16 21.8 35.68 22.44C35.216 23.08 34.552 23.608 33.688 24.024C34.696 24.408 35.48 24.976 36.04 25.728C36.616 26.464 36.904 27.328 36.904 28.32C36.904 29.152 36.696 29.952 36.28 30.72C35.88 31.472 35.256 32.088 34.408 32.568C33.576 33.048 32.512 33.288 31.216 33.288Z" fill="black"/>
</svg>
