<svg width="50" height="50" viewBox="0 0 50 50" fill="none" xmlns="http://www.w3.org/2000/svg">
<path d="M47.4167 25C47.4167 37.3804 37.3804 47.4167 25 47.4167C12.6197 47.4167 2.58337 37.3804 2.58337 25C2.58337 12.6197 12.6197 2.58337 25 2.58337C37.3804 2.58337 47.4167 12.6197 47.4167 25Z" fill="#C4C4C4" stroke="black"/>
<path d="M14.0654 33V31.08H17.4974V18.96L14.2814 21.384L13.1054 19.776L18.0734 16.2H19.6574V31.08H22.5134V33H14.0654ZM31.48 33.288C30.504 33.288 29.664 33.184 28.96 32.976C28.256 32.752 27.616 32.44 27.04 32.04L28.168 30.192C28.616 30.512 29.112 30.784 29.656 31.008C30.2 31.216 30.816 31.32 31.504 31.32C32.576 31.32 33.44 31.016 34.096 30.408C34.752 29.784 35.08 28.992 35.08 28.032C35.08 27.04 34.736 26.232 34.048 25.608C33.376 24.968 32.408 24.648 31.144 24.648H28.168V16.2H36.472V18.144H30.208V22.704H31.408C32.656 22.704 33.72 22.92 34.6 23.352C35.496 23.784 36.176 24.384 36.64 25.152C37.12 25.92 37.36 26.8 37.36 27.792C37.36 28.864 37.112 29.816 36.616 30.648C36.136 31.464 35.456 32.112 34.576 32.592C33.696 33.056 32.664 33.288 31.48 33.288Z" fill="black"/>
</svg>
