<svg width="50" height="50" viewBox="0 0 50 50" fill="none" xmlns="http://www.w3.org/2000/svg">
<path d="M47.4167 25C47.4167 37.3804 37.3804 47.4167 25 47.4167C12.6197 47.4167 2.58337 37.3804 2.58337 25C2.58337 12.6197 12.6197 2.58337 25 2.58337C37.3804 2.58337 47.4167 12.6197 47.4167 25Z" fill="#C4C4C4" stroke="black"/>
<path d="M14.0654 33V31.08H17.4974V18.96L14.2814 21.384L13.1054 19.776L18.0734 16.2H19.6574V31.08H22.5134V33H14.0654ZM32.296 33.288C31.288 33.288 30.352 33.04 29.488 32.544C28.64 32.032 27.96 31.248 27.448 30.192C26.936 29.136 26.68 27.8 26.68 26.184C26.68 24.824 26.856 23.544 27.208 22.344C27.576 21.128 28.12 20.056 28.84 19.128C29.576 18.2 30.48 17.472 31.552 16.944C32.624 16.416 33.872 16.152 35.296 16.152C35.44 16.152 35.592 16.16 35.752 16.176C35.928 16.176 36.08 16.184 36.208 16.2V18.168C36.08 18.152 35.936 18.144 35.776 18.144C35.616 18.128 35.464 18.12 35.32 18.12C33.576 18.12 32.136 18.656 31 19.728C29.88 20.784 29.192 22.24 28.936 24.096C29.384 23.664 29.96 23.272 30.664 22.92C31.368 22.552 32.168 22.368 33.064 22.368C33.96 22.368 34.76 22.576 35.464 22.992C36.168 23.408 36.72 23.992 37.12 24.744C37.536 25.48 37.744 26.36 37.744 27.384C37.744 28.552 37.504 29.584 37.024 30.48C36.56 31.36 35.92 32.048 35.104 32.544C34.288 33.04 33.352 33.288 32.296 33.288ZM32.392 31.32C33.352 31.32 34.12 30.968 34.696 30.264C35.288 29.56 35.584 28.688 35.584 27.648C35.584 26.608 35.304 25.768 34.744 25.128C34.184 24.488 33.44 24.168 32.512 24.168C31.824 24.168 31.168 24.336 30.544 24.672C29.92 25.008 29.368 25.456 28.888 26.016V26.544C28.92 28.048 29.264 29.224 29.92 30.072C30.592 30.904 31.416 31.32 32.392 31.32Z" fill="black"/>
</svg>
