<svg width="50" height="50" viewBox="0 0 50 50" fill="none" xmlns="http://www.w3.org/2000/svg">
<path d="M47.4167 25C47.4167 37.3804 37.3804 47.4167 25 47.4167C12.6197 47.4167 2.58337 37.3804 2.58337 25C2.58337 12.6197 12.6197 2.58337 25 2.58337C37.3804 2.58337 47.4167 12.6197 47.4167 25Z" fill="#C4C4C4" stroke="black"/>
<path d="M14.0654 33V31.08H17.4974V18.96L14.2814 21.384L13.1054 19.776L18.0734 16.2H19.6574V31.08H22.5134V33H14.0654ZM29.68 33C29.68 31.16 29.8 29.528 30.04 28.104C30.296 26.664 30.656 25.368 31.12 24.216C31.6 23.064 32.192 22 32.896 21.024C33.6 20.048 34.408 19.096 35.32 18.168H27.232V16.2H37.888V17.928C36.784 19 35.864 20.048 35.128 21.072C34.392 22.08 33.8 23.152 33.352 24.288C32.904 25.408 32.584 26.68 32.392 28.104C32.2 29.512 32.104 31.144 32.104 33H29.68Z" fill="black"/>
</svg>
