<svg width="50" height="50" viewBox="0 0 50 50" fill="none" xmlns="http://www.w3.org/2000/svg">
<path d="M47.4167 25C47.4167 37.3804 37.3804 47.4167 25 47.4167C12.6197 47.4167 2.58337 37.3804 2.58337 25C2.58337 12.6197 12.6197 2.58337 25 2.58337C37.3804 2.58337 47.4167 12.6197 47.4167 25Z" fill="#C4C4C4" stroke="black"/>
<path d="M14.0654 33V31.08H17.4974V18.96L14.2814 21.384L13.1054 19.776L18.0734 16.2H19.6574V31.08H22.5134V33H14.0654ZM32.32 33.288C31.104 33.288 30.048 33.08 29.152 32.664C28.256 32.248 27.56 31.688 27.064 30.984C26.584 30.264 26.344 29.472 26.344 28.608C26.344 27.568 26.624 26.664 27.184 25.896C27.76 25.128 28.656 24.48 29.872 23.952C29.024 23.488 28.368 22.952 27.904 22.344C27.456 21.72 27.232 20.952 27.232 20.04C27.232 19.224 27.448 18.512 27.88 17.904C28.312 17.28 28.896 16.792 29.632 16.44C30.384 16.088 31.216 15.912 32.128 15.912C33.12 15.912 33.992 16.096 34.744 16.464C35.496 16.816 36.08 17.304 36.496 17.928C36.928 18.552 37.144 19.248 37.144 20.016C37.144 20.992 36.896 21.784 36.4 22.392C35.904 23 35.24 23.512 34.408 23.928C35.592 24.424 36.496 25.048 37.12 25.8C37.744 26.536 38.056 27.424 38.056 28.464C38.056 29.424 37.808 30.272 37.312 31.008C36.816 31.728 36.136 32.288 35.272 32.688C34.408 33.088 33.424 33.288 32.32 33.288ZM32.44 23.136C33.144 22.896 33.752 22.528 34.264 22.032C34.792 21.536 35.056 20.936 35.056 20.232C35.056 19.496 34.776 18.888 34.216 18.408C33.656 17.928 32.96 17.688 32.128 17.688C31.312 17.688 30.64 17.904 30.112 18.336C29.584 18.752 29.32 19.304 29.32 19.992C29.32 20.68 29.6 21.304 30.16 21.864C30.736 22.424 31.496 22.848 32.44 23.136ZM32.344 31.368C33.368 31.368 34.208 31.104 34.864 30.576C35.52 30.032 35.848 29.344 35.848 28.512C35.848 27.744 35.504 27.056 34.816 26.448C34.144 25.84 33.208 25.32 32.008 24.888C31.4 25.032 30.832 25.256 30.304 25.56C29.776 25.864 29.352 26.24 29.032 26.688C28.712 27.136 28.552 27.648 28.552 28.224C28.552 28.816 28.712 29.352 29.032 29.832C29.368 30.312 29.824 30.688 30.4 30.96C30.976 31.232 31.624 31.368 32.344 31.368Z" fill="black"/>
</svg>
