<svg width="50" height="50" viewBox="0 0 50 50" fill="none" xmlns="http://www.w3.org/2000/svg">
<path d="M47.4167 25C47.4167 37.3804 37.3804 47.4167 25 47.4167C12.6197 47.4167 2.58337 37.3804 2.58337 25C2.58337 12.6197 12.6197 2.58337 25 2.58337C37.3804 2.58337 47.4167 12.6197 47.4167 25Z" fill="#C4C4C4" stroke="black"/>
<path d="M14.0654 33V31.08H17.4974V18.96L14.2814 21.384L13.1054 19.776L18.0734 16.2H19.6574V31.08H22.5134V33H14.0654ZM31.336 33.288C30.408 33.288 29.576 33.128 28.84 32.808C28.104 32.472 27.432 32.008 26.824 31.416L28.24 29.808C29.2 30.816 30.272 31.32 31.456 31.32C32.112 31.32 32.72 31.104 33.28 30.672C33.84 30.224 34.288 29.528 34.624 28.584C34.976 27.64 35.152 26.424 35.152 24.936C34.656 25.384 34.104 25.76 33.496 26.064C32.888 26.368 32.232 26.52 31.528 26.52C30.68 26.52 29.872 26.328 29.104 25.944C28.352 25.544 27.736 24.968 27.256 24.216C26.792 23.448 26.56 22.504 26.56 21.384C26.56 20.376 26.784 19.456 27.232 18.624C27.696 17.792 28.336 17.136 29.152 16.656C29.968 16.16 30.912 15.912 31.984 15.912C32.816 15.912 33.528 16.04 34.12 16.296C34.712 16.552 35.208 16.888 35.608 17.304C35.992 17.704 36.312 18.176 36.568 18.72C36.84 19.248 37.04 19.952 37.168 20.832C37.296 21.696 37.36 22.824 37.36 24.216C37.36 26.344 37.096 28.08 36.568 29.424C36.04 30.752 35.32 31.728 34.408 32.352C33.512 32.976 32.488 33.288 31.336 33.288ZM31.888 24.744C32.496 24.744 33.08 24.592 33.64 24.288C34.216 23.984 34.72 23.616 35.152 23.184V22.464C35.152 20.944 34.856 19.792 34.264 19.008C33.688 18.224 32.904 17.832 31.912 17.832C31 17.832 30.224 18.152 29.584 18.792C28.96 19.416 28.648 20.248 28.648 21.288C28.648 22.008 28.8 22.632 29.104 23.16C29.408 23.672 29.8 24.064 30.28 24.336C30.776 24.608 31.312 24.744 31.888 24.744Z" fill="black"/>
</svg>
