<svg width="50" height="50" viewBox="0 0 50 50" fill="none" xmlns="http://www.w3.org/2000/svg">
<path d="M47.4167 25C47.4167 37.3804 37.3804 47.4167 25 47.4167C12.6197 47.4167 2.58337 37.3804 2.58337 25C2.58337 12.6197 12.6197 2.58337 25 2.58337C37.3804 2.58337 47.4167 12.6197 47.4167 25Z" fill="#C4C4C4" stroke="black"/>
<path d="M12.7214 33C12.6734 32.712 12.6494 32.416 12.6494 32.112C12.6494 31.072 12.8254 30.144 13.1774 29.328C13.5454 28.496 14.0174 27.744 14.5934 27.072C15.1694 26.384 15.7774 25.752 16.4174 25.176C17.0734 24.584 17.6814 24.024 18.2414 23.496C18.8174 22.952 19.2894 22.408 19.6574 21.864C20.0254 21.32 20.2094 20.752 20.2094 20.16C20.2094 19.488 19.9614 18.936 19.4654 18.504C18.9694 18.056 18.3294 17.832 17.5454 17.832C16.8734 17.832 16.2574 17.968 15.6974 18.24C15.1534 18.496 14.6414 18.848 14.1614 19.296L12.9614 17.832C13.6014 17.256 14.3054 16.792 15.0734 16.44C15.8574 16.088 16.7614 15.912 17.7854 15.912C18.7294 15.912 19.5534 16.096 20.2574 16.464C20.9614 16.816 21.5054 17.304 21.8894 17.928C22.2894 18.552 22.4894 19.248 22.4894 20.016C22.4894 20.784 22.3214 21.496 21.9854 22.152C21.6494 22.808 21.2174 23.424 20.6894 24C20.1614 24.576 19.5934 25.136 18.9854 25.68C18.3774 26.208 17.7934 26.752 17.2334 27.312C16.6734 27.872 16.1934 28.456 15.7934 29.064C15.4094 29.672 15.1694 30.328 15.0734 31.032H22.4654V33H12.7214ZM32.176 33.288C30.304 33.288 28.88 32.528 27.904 31.008C26.928 29.472 26.44 27.328 26.44 24.576C26.44 21.808 26.936 19.672 27.928 18.168C28.936 16.664 30.368 15.912 32.224 15.912C34.096 15.912 35.52 16.672 36.496 18.192C37.472 19.712 37.96 21.856 37.96 24.624C37.96 27.392 37.456 29.528 36.448 31.032C35.456 32.536 34.032 33.288 32.176 33.288ZM32.2 31.32C32.92 31.32 33.536 31.112 34.048 30.696C34.576 30.264 34.976 29.56 35.248 28.584C35.536 27.608 35.68 26.296 35.68 24.648C35.68 22.44 35.368 20.76 34.744 19.608C34.136 18.456 33.288 17.88 32.2 17.88C31.48 17.88 30.856 18.096 30.328 18.528C29.816 18.944 29.416 19.64 29.128 20.616C28.856 21.576 28.72 22.888 28.72 24.552C28.72 26.76 29.024 28.44 29.632 29.592C30.256 30.744 31.112 31.32 32.2 31.32Z" fill="black"/>
</svg>
