<svg width="50" height="50" viewBox="0 0 50 50" fill="none" xmlns="http://www.w3.org/2000/svg">
<path d="M47.4167 25C47.4167 37.3804 37.3804 47.4167 25 47.4167C12.6197 47.4167 2.58337 37.3804 2.58337 25C2.58337 12.6197 12.6197 2.58337 25 2.58337C37.3804 2.58337 47.4167 12.6197 47.4167 25Z" fill="#C4C4C4" stroke="black"/>
<path d="M24.2847 33.288C23.3087 33.288 22.4687 33.184 21.7647 32.976C21.0607 32.752 20.4207 32.44 19.8447 32.04L20.9727 30.192C21.4207 30.512 21.9167 30.784 22.4607 31.008C23.0047 31.216 23.6207 31.32 24.3087 31.32C25.3807 31.32 26.2447 31.016 26.9007 30.408C27.5567 29.784 27.8847 28.992 27.8847 28.032C27.8847 27.04 27.5407 26.232 26.8527 25.608C26.1807 24.968 25.2127 24.648 23.9487 24.648H20.9727V16.2H29.2767V18.144H23.0127V22.704H24.2127C25.4607 22.704 26.5247 22.92 27.4047 23.352C28.3007 23.784 28.9807 24.384 29.4447 25.152C29.9247 25.92 30.1647 26.8 30.1647 27.792C30.1647 28.864 29.9167 29.816 29.4207 30.648C28.9407 31.464 28.2607 32.112 27.3807 32.592C26.5007 33.056 25.4687 33.288 24.2847 33.288Z" fill="black"/>
</svg>
