<svg width="50" height="50" viewBox="0 0 50 50" fill="none" xmlns="http://www.w3.org/2000/svg">
<path d="M47.4167 25C47.4167 37.3804 37.3804 47.4167 25 47.4167C12.6197 47.4167 2.58337 37.3804 2.58337 25C2.58337 12.6197 12.6197 2.58337 25 2.58337C37.3804 2.58337 47.4167 12.6197 47.4167 25Z" fill="#C4C4C4" stroke="black"/>
<path d="M25.1007 33.288C24.0927 33.288 23.1567 33.04 22.2927 32.544C21.4447 32.032 20.7647 31.248 20.2527 30.192C19.7407 29.136 19.4847 27.8 19.4847 26.184C19.4847 24.824 19.6607 23.544 20.0127 22.344C20.3807 21.128 20.9247 20.056 21.6447 19.128C22.3807 18.2 23.2847 17.472 24.3567 16.944C25.4287 16.416 26.6767 16.152 28.1007 16.152C28.2447 16.152 28.3967 16.16 28.5567 16.176C28.7327 16.176 28.8847 16.184 29.0127 16.2V18.168C28.8847 18.152 28.7407 18.144 28.5807 18.144C28.4207 18.128 28.2687 18.12 28.1247 18.12C26.3807 18.12 24.9407 18.656 23.8047 19.728C22.6847 20.784 21.9967 22.24 21.7407 24.096C22.1887 23.664 22.7647 23.272 23.4687 22.92C24.1727 22.552 24.9727 22.368 25.8687 22.368C26.7647 22.368 27.5647 22.576 28.2687 22.992C28.9727 23.408 29.5247 23.992 29.9247 24.744C30.3407 25.48 30.5487 26.36 30.5487 27.384C30.5487 28.552 30.3087 29.584 29.8287 30.48C29.3647 31.36 28.7247 32.048 27.9087 32.544C27.0927 33.04 26.1567 33.288 25.1007 33.288ZM25.1967 31.32C26.1567 31.32 26.9247 30.968 27.5007 30.264C28.0927 29.56 28.3887 28.688 28.3887 27.648C28.3887 26.608 28.1087 25.768 27.5487 25.128C26.9887 24.488 26.2447 24.168 25.3167 24.168C24.6287 24.168 23.9727 24.336 23.3487 24.672C22.7247 25.008 22.1727 25.456 21.6927 26.016V26.544C21.7247 28.048 22.0687 29.224 22.7247 30.072C23.3967 30.904 24.2207 31.32 25.1967 31.32Z" fill="black"/>
</svg>
