<svg width="50" height="50" viewBox="0 0 50 50" fill="none" xmlns="http://www.w3.org/2000/svg">
<path d="M47.4167 25C47.4167 37.3804 37.3804 47.4167 25 47.4167C12.6197 47.4167 2.58337 37.3804 2.58337 25C2.58337 12.6197 12.6197 2.58337 25 2.58337C37.3804 2.58337 47.4167 12.6197 47.4167 25Z" fill="#C4C4C4" stroke="black"/>
<path d="M22.4847 33C22.4847 31.16 22.6047 29.528 22.8447 28.104C23.1007 26.664 23.4607 25.368 23.9247 24.216C24.4047 23.064 24.9967 22 25.7007 21.024C26.4047 20.048 27.2127 19.096 28.1247 18.168H20.0367V16.2H30.6927V17.928C29.5887 19 28.6687 20.048 27.9327 21.072C27.1967 22.08 26.6047 23.152 26.1567 24.288C25.7087 25.408 25.3887 26.68 25.1967 28.104C25.0047 29.512 24.9087 31.144 24.9087 33H22.4847Z" fill="black"/>
</svg>
