<svg width="50" height="50" viewBox="0 0 50 50" fill="none" xmlns="http://www.w3.org/2000/svg">
<path d="M47.4167 25C47.4167 37.3804 37.3804 47.4167 25 47.4167C12.6197 47.4167 2.58337 37.3804 2.58337 25C2.58337 12.6197 12.6197 2.58337 25 2.58337C37.3804 2.58337 47.4167 12.6197 47.4167 25Z" fill="#C4C4C4" stroke="black"/>
<path d="M25.1247 33.288C23.9087 33.288 22.8527 33.08 21.9567 32.664C21.0607 32.248 20.3647 31.688 19.8687 30.984C19.3887 30.264 19.1487 29.472 19.1487 28.608C19.1487 27.568 19.4287 26.664 19.9887 25.896C20.5647 25.128 21.4607 24.48 22.6767 23.952C21.8287 23.488 21.1727 22.952 20.7087 22.344C20.2607 21.72 20.0367 20.952 20.0367 20.04C20.0367 19.224 20.2527 18.512 20.6847 17.904C21.1167 17.28 21.7007 16.792 22.4367 16.44C23.1887 16.088 24.0207 15.912 24.9327 15.912C25.9247 15.912 26.7967 16.096 27.5487 16.464C28.3007 16.816 28.8847 17.304 29.3007 17.928C29.7327 18.552 29.9487 19.248 29.9487 20.016C29.9487 20.992 29.7007 21.784 29.2047 22.392C28.7087 23 28.0447 23.512 27.2127 23.928C28.3967 24.424 29.3007 25.048 29.9247 25.8C30.5487 26.536 30.8607 27.424 30.8607 28.464C30.8607 29.424 30.6127 30.272 30.1167 31.008C29.6207 31.728 28.9407 32.288 28.0767 32.688C27.2127 33.088 26.2287 33.288 25.1247 33.288ZM25.2447 23.136C25.9487 22.896 26.5567 22.528 27.0687 22.032C27.5967 21.536 27.8607 20.936 27.8607 20.232C27.8607 19.496 27.5807 18.888 27.0207 18.408C26.4607 17.928 25.7647 17.688 24.9327 17.688C24.1167 17.688 23.4447 17.904 22.9167 18.336C22.3887 18.752 22.1247 19.304 22.1247 19.992C22.1247 20.68 22.4047 21.304 22.9647 21.864C23.5407 22.424 24.3007 22.848 25.2447 23.136ZM25.1487 31.368C26.1727 31.368 27.0127 31.104 27.6687 30.576C28.3247 30.032 28.6527 29.344 28.6527 28.512C28.6527 27.744 28.3087 27.056 27.6207 26.448C26.9487 25.84 26.0127 25.32 24.8127 24.888C24.2047 25.032 23.6367 25.256 23.1087 25.56C22.5807 25.864 22.1567 26.24 21.8367 26.688C21.5167 27.136 21.3567 27.648 21.3567 28.224C21.3567 28.816 21.5167 29.352 21.8367 29.832C22.1727 30.312 22.6287 30.688 23.2047 30.96C23.7807 31.232 24.4287 31.368 25.1487 31.368Z" fill="black"/>
</svg>
