<svg width="50" height="50" viewBox="0 0 50 50" fill="none" xmlns="http://www.w3.org/2000/svg">
<path d="M47.4167 25C47.4167 37.3804 37.3804 47.4167 25 47.4167C12.6197 47.4167 2.58337 37.3804 2.58337 25C2.58337 12.6197 12.6197 2.58337 25 2.58337C37.3804 2.58337 47.4167 12.6197 47.4167 25Z" fill="#C4C4C4" stroke="black"/>
<path d="M24.1407 33.288C23.2127 33.288 22.3807 33.128 21.6447 32.808C20.9087 32.472 20.2367 32.008 19.6287 31.416L21.0447 29.808C22.0047 30.816 23.0767 31.32 24.2607 31.32C24.9167 31.32 25.5247 31.104 26.0847 30.672C26.6447 30.224 27.0927 29.528 27.4287 28.584C27.7807 27.64 27.9567 26.424 27.9567 24.936C27.4607 25.384 26.9087 25.76 26.3007 26.064C25.6927 26.368 25.0367 26.52 24.3327 26.52C23.4847 26.52 22.6767 26.328 21.9087 25.944C21.1567 25.544 20.5407 24.968 20.0607 24.216C19.5967 23.448 19.3647 22.504 19.3647 21.384C19.3647 20.376 19.5887 19.456 20.0367 18.624C20.5007 17.792 21.1407 17.136 21.9567 16.656C22.7727 16.16 23.7167 15.912 24.7887 15.912C25.6207 15.912 26.3327 16.04 26.9247 16.296C27.5167 16.552 28.0127 16.888 28.4127 17.304C28.7967 17.704 29.1167 18.176 29.3727 18.72C29.6447 19.248 29.8447 19.952 29.9727 20.832C30.1007 21.696 30.1647 22.824 30.1647 24.216C30.1647 26.344 29.9007 28.08 29.3727 29.424C28.8447 30.752 28.1247 31.728 27.2127 32.352C26.3167 32.976 25.2927 33.288 24.1407 33.288ZM24.6927 24.744C25.3007 24.744 25.8847 24.592 26.4447 24.288C27.0207 23.984 27.5247 23.616 27.9567 23.184V22.464C27.9567 20.944 27.6607 19.792 27.0687 19.008C26.4927 18.224 25.7087 17.832 24.7167 17.832C23.8047 17.832 23.0287 18.152 22.3887 18.792C21.7647 19.416 21.4527 20.248 21.4527 21.288C21.4527 22.008 21.6047 22.632 21.9087 23.16C22.2127 23.672 22.6047 24.064 23.0847 24.336C23.5807 24.608 24.1167 24.744 24.6927 24.744Z" fill="black"/>
</svg>
