<svg width="50" height="50" viewBox="0 0 50 50" fill="none" xmlns="http://www.w3.org/2000/svg">
<g clip-path="url(#clip0_217_2)">
<path d="M41.5817 6.33989L41.5617 6.78327L41.9995 6.85578C43.1685 7.04935 44.2868 7.47502 45.2886 8.10769C46.2904 8.74036 47.1554 9.56723 47.8325 10.5395C48.5097 11.5118 48.9852 12.6099 49.2313 13.7689C49.4773 14.9279 49.4887 16.1245 49.2649 17.288C49.0411 18.4515 48.5865 19.5585 47.9281 20.5435C47.2696 21.5286 46.4206 22.3718 45.4311 23.0235C44.4416 23.6752 43.3316 24.1222 42.1665 24.338C41.0015 24.5539 39.8051 24.5343 38.6477 24.2804L38.2422 24.1914L38.0802 24.5737C35.6477 30.3161 32.346 33.0119 29.5685 33.6925L29.1875 33.7858V34.1781V40.9688V41.3592L29.5663 41.4538L34.0194 42.5663L34.0205 42.5666C34.5614 42.7004 35.0721 42.9432 35.5187 43.2781L41.2624 47.5874L41.2625 47.5875C41.4409 47.7213 41.5726 47.9078 41.6391 48.1207C41.7056 48.3336 41.7035 48.5619 41.6329 48.7735C41.5624 48.9851 41.4271 49.1691 41.2462 49.2994C41.0653 49.4298 40.848 49.5 40.625 49.5H9.37497C9.15196 49.5 8.93462 49.4298 8.75371 49.2994C8.57281 49.1691 8.43751 48.9851 8.36699 48.7735C8.29647 48.5619 8.2943 48.3336 8.3608 48.1207C8.42729 47.9078 8.55906 47.7213 8.73747 47.5875L8.73754 47.5874L14.4812 43.2781C14.9278 42.9432 15.4385 42.7004 15.9794 42.5666L15.9805 42.5663L20.4337 41.4538L20.8125 41.3592V40.9688V34.1781V33.7858L20.4315 33.6925C17.654 33.0119 14.3522 30.3162 11.9198 24.5707L11.7577 24.1878L11.3517 24.2774C10.1938 24.5326 8.99641 24.5533 7.83036 24.3381C6.66431 24.1229 5.5532 23.6763 4.56265 23.0245C3.5721 22.3728 2.7222 21.5291 2.06313 20.5434C1.40407 19.5577 0.949212 18.4499 0.725421 17.2855C0.501629 16.1211 0.513442 14.9236 0.760163 13.7638C1.00688 12.604 1.48351 11.5055 2.16189 10.5329C2.84027 9.56044 3.70665 8.73373 4.70987 8.10164C5.71308 7.46955 6.83279 7.0449 8.00286 6.85277L8.44177 6.7807L8.42131 6.33638C8.3481 4.74621 8.3118 3.15456 8.31247 1.56271L7.81247 1.5625H8.31247C8.31247 1.28071 8.42441 1.01046 8.62366 0.811199C8.82292 0.611942 9.09317 0.5 9.37497 0.5H40.625C40.9068 0.5 41.177 0.611942 41.3763 0.811199C41.5755 1.01046 41.6875 1.28071 41.6875 1.5625C41.6875 3.23632 41.6501 4.82878 41.5817 6.33989ZM10.4618 22.2887L11.02 22.1866L10.8484 21.6457C9.8212 18.4067 9.03015 14.3945 8.62012 9.45861L8.12184 9.5L8.03185 9.00817C6.27074 9.3304 4.70977 10.339 3.69233 11.8122C2.67489 13.2853 2.28433 15.1023 2.60657 16.8634C2.9288 18.6245 3.93744 20.1855 5.41059 21.2029C6.88374 22.2204 8.70072 22.6109 10.4618 22.2887ZM39.1545 21.6461L38.9836 22.1867L39.5412 22.2887C41.3023 22.6109 43.1193 22.2204 44.5925 21.2029C46.0656 20.1855 47.0742 18.6245 47.3965 16.8634C47.7187 15.1023 47.3282 13.2853 46.3107 11.8122C45.2933 10.339 43.7323 9.3304 41.9712 9.00817L41.4289 8.90894L41.383 9.45832C40.9698 14.3974 40.1787 18.4067 39.1545 21.6461Z" fill="#C4C4C4" stroke="black"/>
<path d="M25.1143 25.264C23.9996 25.264 23.0316 25.0733 22.2103 24.692C21.389 24.3107 20.751 23.7973 20.2963 23.152C19.8563 22.492 19.6363 21.766 19.6363 20.974C19.6363 20.0207 19.893 19.192 20.4063 18.488C20.9343 17.784 21.7556 17.19 22.8703 16.706C22.093 16.2807 21.4916 15.7893 21.0663 15.232C20.6556 14.66 20.4503 13.956 20.4503 13.12C20.4503 12.372 20.6483 11.7193 21.0443 11.162C21.4403 10.59 21.9756 10.1427 22.6503 9.82C23.3396 9.49733 24.1023 9.336 24.9383 9.336C25.8476 9.336 26.647 9.50467 27.3363 9.842C28.0256 10.1647 28.561 10.612 28.9423 11.184C29.3383 11.756 29.5363 12.394 29.5363 13.098C29.5363 13.9927 29.309 14.7187 28.8543 15.276C28.3996 15.8333 27.791 16.3027 27.0283 16.684C28.1136 17.1387 28.9423 17.7107 29.5143 18.4C30.0863 19.0747 30.3723 19.8887 30.3723 20.842C30.3723 21.722 30.145 22.4993 29.6903 23.174C29.2356 23.834 28.6123 24.3473 27.8203 24.714C27.0283 25.0807 26.1263 25.264 25.1143 25.264ZM25.2243 15.958C25.8696 15.738 26.427 15.4007 26.8963 14.946C27.3803 14.4913 27.6223 13.9413 27.6223 13.296C27.6223 12.6213 27.3656 12.064 26.8523 11.624C26.339 11.184 25.701 10.964 24.9383 10.964C24.1903 10.964 23.5743 11.162 23.0903 11.558C22.6063 11.9393 22.3643 12.4453 22.3643 13.076C22.3643 13.7067 22.621 14.2787 23.1343 14.792C23.6623 15.3053 24.359 15.694 25.2243 15.958ZM25.1363 23.504C26.075 23.504 26.845 23.262 27.4463 22.778C28.0476 22.2793 28.3483 21.6487 28.3483 20.886C28.3483 20.182 28.033 19.5513 27.4023 18.994C26.7863 18.4367 25.9283 17.96 24.8283 17.564C24.271 17.696 23.7503 17.9013 23.2663 18.18C22.7823 18.4587 22.3936 18.8033 22.1003 19.214C21.807 19.6247 21.6603 20.094 21.6603 20.622C21.6603 21.1647 21.807 21.656 22.1003 22.096C22.4083 22.536 22.8263 22.8807 23.3543 23.13C23.8823 23.3793 24.4763 23.504 25.1363 23.504Z" fill="black"/>
</g>
<defs>
<clipPath id="clip0_217_2">
<rect width="50" height="50" fill="white"/>
</clipPath>
</defs>
</svg>
