<svg width="50" height="50" viewBox="0 0 50 50" fill="none" xmlns="http://www.w3.org/2000/svg">
<g clip-path="url(#clip0_217_2)">
<path d="M41.5817 6.33989L41.5617 6.78327L41.9995 6.85578C43.1685 7.04935 44.2868 7.47502 45.2886 8.10769C46.2904 8.74036 47.1554 9.56723 47.8325 10.5395C48.5097 11.5118 48.9852 12.6099 49.2313 13.7689C49.4773 14.9279 49.4887 16.1245 49.2649 17.288C49.0411 18.4515 48.5865 19.5585 47.9281 20.5435C47.2696 21.5286 46.4206 22.3718 45.4311 23.0235C44.4416 23.6752 43.3316 24.1222 42.1665 24.338C41.0015 24.5539 39.8051 24.5343 38.6477 24.2804L38.2422 24.1914L38.0802 24.5737C35.6477 30.3161 32.346 33.0119 29.5685 33.6925L29.1875 33.7858V34.1781V40.9688V41.3592L29.5663 41.4538L34.0194 42.5663L34.0205 42.5666C34.5614 42.7004 35.0721 42.9432 35.5187 43.2781L41.2624 47.5874L41.2625 47.5875C41.4409 47.7213 41.5726 47.9078 41.6391 48.1207C41.7056 48.3336 41.7035 48.5619 41.6329 48.7735C41.5624 48.9851 41.4271 49.1691 41.2462 49.2994C41.0653 49.4298 40.848 49.5 40.625 49.5H9.37497C9.15196 49.5 8.93462 49.4298 8.75371 49.2994C8.57281 49.1691 8.43751 48.9851 8.36699 48.7735C8.29647 48.5619 8.2943 48.3336 8.3608 48.1207C8.42729 47.9078 8.55906 47.7213 8.73747 47.5875L8.73754 47.5874L14.4812 43.2781C14.9278 42.9432 15.4385 42.7004 15.9794 42.5666L15.9805 42.5663L20.4337 41.4538L20.8125 41.3592V40.9688V34.1781V33.7858L20.4315 33.6925C17.654 33.0119 14.3522 30.3162 11.9198 24.5707L11.7577 24.1878L11.3517 24.2774C10.1938 24.5326 8.99641 24.5533 7.83036 24.3381C6.66431 24.1229 5.5532 23.6763 4.56265 23.0245C3.5721 22.3728 2.7222 21.5291 2.06313 20.5434C1.40407 19.5577 0.949212 18.4499 0.725421 17.2855C0.501629 16.1211 0.513442 14.9236 0.760163 13.7638C1.00688 12.604 1.48351 11.5055 2.16189 10.5329C2.84027 9.56044 3.70665 8.73373 4.70987 8.10164C5.71308 7.46955 6.83279 7.0449 8.00286 6.85277L8.44177 6.7807L8.42131 6.33638C8.3481 4.74621 8.3118 3.15456 8.31247 1.56271L7.81247 1.5625H8.31247C8.31247 1.28071 8.42441 1.01046 8.62366 0.811199C8.82292 0.611942 9.09317 0.5 9.37497 0.5H40.625C40.9068 0.5 41.177 0.611942 41.3763 0.811199C41.5755 1.01046 41.6875 1.28071 41.6875 1.5625C41.6875 3.23632 41.6501 4.82878 41.5817 6.33989ZM10.4618 22.2887L11.02 22.1866L10.8484 21.6457C9.8212 18.4067 9.03015 14.3945 8.62012 9.45861L8.12184 9.5L8.03185 9.00817C6.27074 9.3304 4.70977 10.339 3.69233 11.8122C2.67489 13.2853 2.28433 15.1023 2.60657 16.8634C2.9288 18.6245 3.93744 20.1855 5.41059 21.2029C6.88374 22.2204 8.70072 22.6109 10.4618 22.2887ZM39.1545 21.6461L38.9836 22.1867L39.5412 22.2887C41.3023 22.6109 43.1193 22.2204 44.5925 21.2029C46.0656 20.1855 47.0742 18.6245 47.3965 16.8634C47.7187 15.1023 47.3282 13.2853 46.3107 11.8122C45.2933 10.339 43.7323 9.3304 41.9712 9.00817L41.4289 8.90894L41.383 9.45832C40.9698 14.3974 40.1787 18.4067 39.1545 21.6461Z" fill="#C4C4C4" stroke="black"/>
<path d="M24.2123 25.264C23.3616 25.264 22.599 25.1173 21.9243 24.824C21.2496 24.516 20.6336 24.0907 20.0763 23.548L21.3743 22.074C22.2543 22.998 23.237 23.46 24.3223 23.46C24.9236 23.46 25.481 23.262 25.9943 22.866C26.5076 22.4553 26.9183 21.8173 27.2263 20.952C27.549 20.0867 27.7103 18.972 27.7103 17.608C27.2556 18.0187 26.7496 18.3633 26.1923 18.642C25.635 18.9207 25.0336 19.06 24.3883 19.06C23.611 19.06 22.8703 18.884 22.1663 18.532C21.477 18.1653 20.9123 17.6373 20.4723 16.948C20.047 16.244 19.8343 15.3787 19.8343 14.352C19.8343 13.428 20.0396 12.5847 20.4503 11.822C20.8756 11.0593 21.4623 10.458 22.2103 10.018C22.9583 9.56333 23.8236 9.336 24.8063 9.336C25.569 9.336 26.2216 9.45333 26.7643 9.688C27.307 9.92267 27.7616 10.2307 28.1283 10.612C28.4803 10.9787 28.7736 11.4113 29.0083 11.91C29.2576 12.394 29.441 13.0393 29.5583 13.846C29.6756 14.638 29.7343 15.672 29.7343 16.948C29.7343 18.8987 29.4923 20.49 29.0083 21.722C28.5243 22.9393 27.8643 23.834 27.0283 24.406C26.207 24.978 25.2683 25.264 24.2123 25.264ZM24.7183 17.432C25.2756 17.432 25.811 17.2927 26.3243 17.014C26.8523 16.7353 27.3143 16.398 27.7103 16.002V15.342C27.7103 13.9487 27.439 12.8927 26.8963 12.174C26.3683 11.4553 25.6496 11.096 24.7403 11.096C23.9043 11.096 23.193 11.3893 22.6063 11.976C22.0343 12.548 21.7483 13.3107 21.7483 14.264C21.7483 14.924 21.8876 15.496 22.1663 15.98C22.445 16.4493 22.8043 16.8087 23.2443 17.058C23.699 17.3073 24.1903 17.432 24.7183 17.432Z" fill="black"/>
</g>
<defs>
<clipPath id="clip0_217_2">
<rect width="50" height="50" fill="white"/>
</clipPath>
</defs>
</svg>
